<?xml version="1.0" encoding="iso-8859-1"?>
<!-- Generator: Adobe Illustrator 19.0.0, SVG Export Plug-In . SVG Version: 6.00 Build 0)  -->
<svg version="1.1" id="Capa_1" xmlns="http://www.w3.org/2000/svg" xmlns:xlink="http://www.w3.org/1999/xlink" x="0px" y="0px"
	 viewBox="0 0 512 512" style="enable-background:new 0 0 512 512;" xml:space="preserve">
<g>
	<g>
		<path d="M481.531,412.771C477.005,367.479,435.799,332,387.723,332C373.543,332,362,320.457,362,306.277v-14.18
			c0-57.759-45.575-107.08-100.375-109.951c-29.033-1.157-57.777,8.672-78.886,28.667C161.631,230.853,150,257.908,150,287v19.277
			c0,14.18-11.543,25.723-25.723,25.723H120c-16.084,0-31.875,4.292-45.645,12.422c-30.234,17.813-47.08,50.654-43.989,85.708
			C34.409,476.038,75.732,512,124.453,512H180c24.126,0,47.772-9.419,64.765-26.499c6.504-6.504,15.981-6.489,22.456-0.015
			C284.228,502.581,307.874,512,332,512h60c25.386,0,49.717-10.796,66.753-29.634C475.774,463.557,484.08,438.186,481.531,412.771z"
			/>
	</g>
</g>
<g>
	<g>
		<path d="M452,122c-33.647,0-60,39.536-60,90s26.353,90,60,90c33.647,0,60-39.536,60-90S485.647,122,452,122z"/>
	</g>
</g>
<g>
	<g>
		<path d="M332,0c-33.647,0-61,41.536-61,92s27.353,90,61,90c33.647,0,60-39.536,60-90S365.647,0,332,0z"/>
	</g>
</g>
<g>
	<g>
		<path d="M180,0c-33.647,0-60,41.536-60,92s26.353,90,60,90c33.647,0,60-39.536,60-90S213.647,0,180,0z"/>
	</g>
</g>
<g>
	<g>
		<path d="M60,122c-33.647,0-60,39.536-60,90s26.353,90,60,90c33.647,0,60-39.536,60-90S93.647,122,60,122z"/>
	</g>
</g>
<g>
</g>
<g>
</g>
<g>
</g>
<g>
</g>
<g>
</g>
<g>
</g>
<g>
</g>
<g>
</g>
<g>
</g>
<g>
</g>
<g>
</g>
<g>
</g>
<g>
</g>
<g>
</g>
<g>
</g>
</svg>
